<svg xmlns="http://www.w3.org/2000/svg" viewBox="0 0 195.92 192"><defs><style>.cls-1{fill:#0c0722;}.cls-2{fill:#cf96fd;}.cls-3{fill:#c69afb;stroke:#1a1a1a;stroke-miterlimit:10;}</style></defs><title>AE</title><g id="Layer_2" data-name="Layer 2"><g id="icons"><g id="AE"><g id="Id"><g id="id-2" data-name="id"><path id="Ps" class="cls-1" d="M0,0V192H195.92V0Z"/></g></g><g id="Id-3" data-name="Id"><g id="id-4" data-name="id"><path id="Ps-2" data-name="Ps" class="cls-2" d="M0,0V192H195.92V0ZM181.22,177.31H14.69V14.69H181.22Z"/></g></g><path class="cls-3" d="M84.24,132.24H99.92L75.43,41.14H54.86l-24.49,91.1H47l4.9-25.46H78.37ZM56.82,93.06l7.83-36.24L73,93.06Z"/><path class="cls-3" d="M156.1,101.88a30.42,30.42,0,0,0,1.61-9.8c0-15.69-9.79-28.41-26.44-28.41-14.61,0-26.45,14.7-26.45,28.41,0,8,1.32,25.82,8.81,33.31,13.72,13.71,38.21,7.33,38.21,2.94V117.55c-32.33,11.76-31.35-15.67-31.35-15.67ZM118.53,90.61c0-8.11,5.7-14.72,12.74-14.69S144.85,82.68,144,90.61Z"/></g></g></g></svg>