<svg xmlns="http://www.w3.org/2000/svg" viewBox="0 0 192 192"><defs><style>.cls-1{fill:#7952b3;}.cls-2{fill:#fafffe;}</style></defs><title>Bootstrap</title><g id="Layer_2" data-name="Layer 2"><g id="icons"><g id="Bootstrap"><rect class="cls-1" width="192" height="192" rx="13"/><path id="BootStrap-2" data-name="BootStrap" class="cls-2" d="M132,71c0-15-11.64-24-26-24H65v94h44.67c15.65,0,28.33-8.71,28.33-22.87C138,101.8,131,93,116,92,116,92,132,90,132,71ZM81,62.14l24.9-.2c3.31,0,11,.91,11.1,12.91.06,7-7.09,12.06-10.9,12.09l-25.1.2Zm28.15,66-28,.22L81,111.57V99.15L107,99c3.56,0,14,4,13.89,15C120.8,122.17,113.25,128.06,109.15,128.1Z"/></g></g></g></svg>