<svg xmlns="http://www.w3.org/2000/svg" viewBox="0 0 135 192"><defs><style>.cls-1{fill:#1a1a1a;}.cls-2{fill:#1b73ba;}.cls-3{fill:#1c88c7;}.cls-4{fill:#fafffe;}</style></defs><title>CSS</title><g id="Layer_2" data-name="Layer 2"><g id="icons"><g id="CSS"><path class="cls-1" d="M56.58,0H77.43V8H72.17l5.26,9v8H56.58v-8h7.36L56.58,8Zm50.63,0H86.36V8l7.36,9H86.36v8h20.85v-8L102,8h5.26ZM26.8,0V24.87H47.65v-8H36.73V8H47.65V0Z"/><polygon class="cls-2" points="121.5 177.08 67.5 192 13.5 177.08 0 34.82 135 34.82 121.5 177.08"/><path class="cls-3" d="M68.49,179.07l45.66-13.93,9.93-115.4H67.83S68.49,178.07,68.49,179.07Z"/><polygon class="cls-2" points="121.5 177.08 67.5 192 13.5 177.08 0 34.82 135 34.82 121.5 177.08"/><path class="cls-3" d="M68.49,179.07l45.66-13.93,9.93-115.4H67.83S68.49,178.07,68.49,179.07Z"/><polygon class="cls-4" points="22.83 64.66 25.81 81.58 65.52 81.58 26.8 99.48 28.79 116.39 86.36 116.39 86.36 138.28 67.5 141.26 47.65 137.28 45.66 124.35 28.79 124.35 31.77 152.21 67.5 162.16 103.23 150.22 107.21 98.49 69.48 98.49 109.19 82.57 109.19 64.66 22.83 64.66"/></g></g></g></svg>