<svg xmlns="http://www.w3.org/2000/svg" viewBox="0 0 135 192"><defs><style>.cls-1{fill:#1a1a1a;}.cls-2{fill:#e44d26;}.cls-3{fill:#f16529;}.cls-4{fill:#fafffe;}</style></defs><title>HTML</title><g id="Layer_2" data-name="Layer 2"><g id="icons"><g id="HTML"><path class="cls-1" d="M97.28,0V25.6H89.34V12.94l-6,9.71-5.95-9.71V25.6H69.49V0h7.94l5.95,9.85,6-9.85ZM65.51,0H41.69V7.88h7.94V25.6h7.94V7.88h7.94ZM29.78,0V8.86H20.85V0h-8V26.58h8V16.74h8.93v9.84h7.94V0Zm81.4,17.72V0h-7.94V25.6h19.85V17.72Z"/><polygon class="cls-2" points="121.5 177.23 67.5 192 13.5 177.23 0 36.43 135 36.43 121.5 177.23"/><path class="cls-3" d="M68.49,179.2l45.66-13.78L124.08,51.2H67.83S68.49,178.22,68.49,179.2Z"/><polygon class="cls-4" points="110.18 65.97 109.19 83.69 44.67 83.69 45.66 100.43 107.21 100.43 103.23 153.6 67.5 163.45 31.77 153.6 31.77 127.02 47.65 127.02 48.64 139.81 67.5 144.74 86.36 139.81 88.35 119.14 29.78 118.15 24.82 65.97 110.18 65.97"/></g></g></g></svg>