<svg xmlns="http://www.w3.org/2000/svg" viewBox="0 0 195.92 192"><defs><style>.cls-1{fill:#1a1a1a;}.cls-2{fill:#f23d91;}</style></defs><title>ID</title><g id="Layer_2" data-name="Layer 2"><g id="icons"><g id="ID"><g id="Id-2" data-name="Id"><g id="id-3" data-name="id"><path id="Ps" class="cls-1" d="M0,0V192H195.92V0Z"/></g><rect class="cls-2" x="57.8" y="42.12" width="14.69" height="91.1"/><path class="cls-2" d="M124.41,42.12V64.65h-3.92A34.29,34.29,0,0,0,86.2,98.94h0c0,23.51,13.72,38.2,34.29,36.24,12.71-1.21,19.59-3.91,19.59-3.91l-1-89.15Zm-3.92,77.39c-11.34,0-18.61-8.25-18.61-19.59,0-11.76,7.27-21.55,18.61-21.55h3.92v41.14Z"/></g><g id="Id-4" data-name="Id"><g id="id-5" data-name="id"><path id="Ps-2" data-name="Ps" class="cls-2" d="M0,0V192H195.92V0ZM181.22,177.31H14.69V14.69H181.22Z"/></g></g></g></g></g></svg>