<svg xmlns="http://www.w3.org/2000/svg" viewBox="0 0 192 192"><defs><style>.cls-1{fill:#ff005d;}.cls-2{fill:#fafffe;}</style></defs><title>Invision</title><g id="Layer_2" data-name="Layer 2"><g id="icons"><g id="Invision"><rect class="cls-1" width="192" height="192" rx="14"/><circle class="cls-2" cx="64" cy="50" r="12"/><path class="cls-2" d="M158,125c-14,25-17,5-8-16,8.12-19,1-37-14-39s-27,18-27,18l3-16H82L77,88H90.67C87.33,119,78,135,62,136c-11,2,9-64,9-64H41L36,88H49c-12,39-14,59,4,61,15,1.67,26-14,26-14l-2,13H96s3-35,13-52,27-8,24,2c-12,41-6,49,11,51s22-22,22-22Z"/></g></g></g></svg>