<svg xmlns="http://www.w3.org/2000/svg" viewBox="0 0 200 192"><defs><style>.cls-1{fill:#2d9dc9;}</style></defs><title>jQuery</title><g id="Layer_2" data-name="Layer 2"><g id="icons"><g id="jQuery"><path class="cls-1" d="M58.08,148.32C15.38,115.74,5.66,57.6,33.3,13a107.84,107.84,0,0,0-9.6,10.28C-13.54,68.88-6.08,134.58,40.37,170s114.28,27.17,151.52-18.45A106.88,106.88,0,0,0,200,140.15C161.54,176.51,100.77,180.89,58.08,148.32Z"/><path class="cls-1" d="M97.74,99.72C67.81,76.88,59.46,38,78.85,6.7a75.6,75.6,0,0,0-6.73,7.21C46,45.89,51.24,92,83.8,116.8s80.13,19,106.24-12.93a75.34,75.34,0,0,0,5.69-8C168.76,121.36,127.68,122.56,97.74,99.72Z"/><path class="cls-1" d="M132.07,57.68c-18.79-14.33-24.59-38-12.43-57.68a46.5,46.5,0,0,0-4.22,4.52c-16.39,20.07-13.11,49,7.33,64.57S173,81.05,189.42,61A47.45,47.45,0,0,0,193,56C176.07,72,150.86,72,132.07,57.68Z"/></g></g></g></svg>