<svg xmlns="http://www.w3.org/2000/svg" viewBox="0 0 195.92 192"><defs><style>.cls-1{fill:#0c0722;}.cls-2{fill:#31c5f0;}</style></defs><title>PS</title><g id="Layer_2" data-name="Layer 2"><g id="icons"><g id="PS"><path id="Ps-2" data-name="Ps" class="cls-1" d="M0,0V192H195.92V0Z"/><path id="Ps-3" data-name="Ps" class="cls-2" d="M0,0V192H195.92V0ZM181.22,177.31H14.69V14.69H181.22Z"/><path class="cls-2" d="M75.92,43.1H49v91.1H61.71V100.9H75.92c16,0,26-12.94,26-28.9h0C101.88,56,91.88,43.1,75.92,43.1Zm0,44.08H62.69V56.82H75.92C85,56.82,88.16,65,88.16,72S85,87.18,75.92,87.18Z"/><path class="cls-2" d="M146.94,71.82a4.4,4.4,0,0,0-3.23-4.26c-7.67-2.11-26.8-5.5-33,10.81-7.83,20.57,16.13,27.8,21.55,32.32,5.76,4.8,3.06,18-21.85,7.58a1.2,1.2,0,0,0-1.66,1.1v11.9s11.76,6.85,24.49,3.91,29.39-23.51,4.9-38.2c-8.81-4.9-15.84-8-14.69-13.71,1-4.9,15.67-5.88,23.51,0Z"/></g></g></g></svg>