<svg xmlns="http://www.w3.org/2000/svg" viewBox="0 0 200 192"><defs><style>.cls-1{fill:#cc6698;}</style></defs><title>Asset 12</title><g id="Layer_2" data-name="Layer 2"><g id="icons"><g id="Sass"><path class="cls-1" d="M195.24,121c-16.54-20.24-41.9-7.23-41.9-7.23-6.61-13-2.2-30.35-2.2-33.25S139,77.6,139,80.49c0,10.12-13.23,39-13.23,39-6.62-8.68-2.21-26-2.21-30.36s-11-2.89-11,0c-1.11,8.67-17.64,59.27-21,60.71s5.51-31.8,4.41-36.14-6.62-1.44-6.62-1.44S93.8,97.84,85,96.4C72.86,95,65.14,112.3,65.14,112.3l-18.74,13s-28.67-27.47-30.88-39C10,57.36,37.58,40,37.58,40c44.1-41.93,98.12-15.91,63.94,18.79S46.4,70.37,46.4,70.37c-2.21,2.9,2.2,10.12,9.92,14.46,50.71,13,66.15-37.59,68.35-43.37S129.08,6.77,105.93,1C36.47-9.14-2.12,61.7.09,80.49s26.46,39,38.59,50.6c-51.82,31.81-29.89,67.07-12.68,60,38-15.63,23.7-58.54,23.7-58.54s1.11-1.45,11-8.68c-2.21,8.68-3.31,40.48,6.61,43.37s15.44-24.57,15.44-24.57-2.21,21.68,5.51,21.68,22-50.6,25.36-56.38c0,5.78,5.51,23.13,5.51,23.13s-16.54,23.13-14.33,26,1.1,4.34,12.13,1.45c22-8.68,11-33.25,11-33.25s7.72-15.9,12.13-24.58c0,4.34,5.51,20.24,5.51,20.24-13.23,11.57-13.23,31.81-7.71,30.36,26.46-5.78,18.74-30.36,18.74-30.36s23.15-10.12,34.18,4.34-2.21,27.47-2.21,27.47C193,155.67,207.36,136.87,195.24,121ZM19.94,177.35c-11-18.79,23.15-39,23.15-39C50.81,154.22,28.2,183.86,19.94,177.35Zm49.61-24.57c-4.41,0-1.1-43.37,13.23-46.26C87.14,105.64,74,152.78,69.55,152.78Zm41.89,0,8.82-13h1.11C117,157.11,111.44,152.78,111.44,152.78Zm28.67-7.23c-3.31-2.89,7.72-18.8,7.72-18.8C152.24,129.65,143.42,148.44,140.11,145.55Z"/></g></g></g></svg>