<svg xmlns="http://www.w3.org/2000/svg" viewBox="0 0 210 192"><defs><style>.cls-1{fill:#fdc80b;}.cls-2{fill:#fc9e00;}.cls-3{fill:#f56b00;}.cls-4{fill:#feeba7;}.cls-5{fill:#fdab00;}</style></defs><title>Sketch</title><g id="Layer_2" data-name="Layer 2"><g id="icons"><g id="Sketch"><polygon class="cls-1" points="105 0 45.65 5.71 43.37 68.57 105 0"/><polygon class="cls-2" points="45.65 5.71 0 68.57 43.37 68.57 45.65 5.71"/><polygon class="cls-3" points="43.37 68.57 0 68.57 105 192 43.37 68.57"/><polygon class="cls-1" points="105 0 164.35 5.71 166.63 68.57 105 0"/><polygon class="cls-2" points="164.35 5.71 210 68.57 166.63 68.57 164.35 5.71"/><polygon class="cls-4" points="166.63 68.57 105 0 43.37 68.57 166.63 68.57"/><polygon class="cls-5" points="43.37 68.57 105 192 166.63 68.57 43.37 68.57"/><polygon class="cls-3" points="166.63 68.57 210 68.57 105 192 166.63 68.57"/></g></g></g></svg>